<?xml version="1.0" encoding="utf-8"?>
<!-- Generator: Adobe Illustrator 17.0.0, SVG Export Plug-In . SVG Version: 6.00 Build 0)  -->
<!DOCTYPE svg PUBLIC "-//W3C//DTD SVG 1.1//EN" "http://www.w3.org/Graphics/SVG/1.1/DTD/svg11.dtd">
<svg version="1.1" id="Lager_1" xmlns="http://www.w3.org/2000/svg" xmlns:xlink="http://www.w3.org/1999/xlink" x="0px" y="0px"
	 width="116px" height="53px" viewBox="0 0 116 53" enable-background="new 0 0 116 53" xml:space="preserve">
<g>
	<g>
		<defs>
			<rect id="SVGID_1_" x="0.204" y="-16.544" width="115.592" height="86.089"/>
		</defs>
		<clipPath id="SVGID_2_">
			<use xlink:href="#SVGID_1_"  overflow="visible"/>
		</clipPath>
		<g clip-path="url(#SVGID_2_)">
			<defs>
				<rect id="SVGID_3_" x="0.204" y="-16.544" width="115.592" height="86.089"/>
			</defs>
			<clipPath id="SVGID_4_">
				<use xlink:href="#SVGID_3_"  overflow="visible"/>
			</clipPath>
			<path clip-path="url(#SVGID_4_)" d="M5.987,15.901l1.465,2.026L4.493,36.293h8.331l3.421-17.985h3.908l-3.095,17.985
				c0,0,5.397,0.007,7.747,0.007c0.636,0,1.554-0.21,1.943-0.767c0.359-0.515,0.61-2.153,0.61-2.153h-1.221
				c0,0,1.447-10.346,1.831-13.806c0.078-0.693,0.21-2.18-0.121-2.787c-0.356-0.653-0.94-0.909-1.344-1.013
				C21.525,14.5,5.987,15.901,5.987,15.901"/>
			<path clip-path="url(#SVGID_4_)" d="M52.394,19.074c-0.043-0.525-0.095-1.225-0.705-1.969c-0.262-0.322-1.11-0.851-1.491-1.007
				c-3.345-1.361-10.91-0.861-14.412,0c-1.647,0.46-2.338,1.223-2.931,1.86c-0.524,0.565-1.199,1.702-1.466,2.728
				c-0.842,3.232-1.935,9.928-1.709,13.265c0.051,0.751,0.316,1.216,0.61,1.487c0.593,0.548,1.166,0.566,1.589,0.62
				c3.785,0.481,15.265,0.125,15.265,0.125l2.197-2.107l-11.724-0.124l0.245-2.729c0,0,7.399,0.599,9.77,0
				c0.682-0.171,1.693-0.69,2.32-1.61c0.313-0.46,1.005-1.917,1.221-2.604C51.776,25.096,52.558,21.074,52.394,19.074
				 M42.501,28.868l-4.274-0.125l1.589-9.669l4.274-0.123L42.501,28.868z"/>
			<path clip-path="url(#SVGID_4_)" d="M88.544,15.794c0,0-12.949-1.151-17.097-0.122c-1.056,0.276-1.836,0.985-2.321,1.474
				c-0.486,0.488-1.087,1.244-1.466,2.332c-0.445,1.537-0.488,6.386-0.488,6.386s-0.064,1.114,0.719,1.71
				c0.487,0.371,0.715,0.448,0.991,0.499c2.343,0.437,9.526,0.368,9.526,0.368l-0.611,5.035l-10.997,0.007l-1.704,2.45
				c0,0,13.359,0.829,17.708,0c0.618-0.12,1.402-0.39,2.198-1.229c0.363-0.383,1.048-1.442,1.345-2.456
				c0.408-1.393,0.641-4.322,0.61-5.772c-0.011-0.447-0.127-1.343-0.488-1.718c-0.343-0.356-1.033-0.856-2.199-1.106
				c-2.15-0.461-8.792-0.121-8.792-0.121l0.365-5.159h10.626L88.544,15.794z"/>
			<path clip-path="url(#SVGID_4_)" d="M111.746,18.025c0,0-0.049-1.132-0.66-1.621c-0.302-0.243-0.903-0.594-1.662-0.7
				c-7.748-0.958-17.462-0.123-17.462-0.123l1.466,2.932l10.379,0.123l-0.61,2.32c0,0-7.31-0.715-9.647-0.122
				c-0.51,0.131-1.309,0.73-1.711,1.221c-0.381,0.465-1.131,1.779-1.343,2.442c-0.677,2.123-1.86,6.599-1.465,8.793
				c0.144,0.801,0.548,1.427,0.854,1.71c0.52,0.482,1.157,0.652,1.588,0.733c4.232,0.79,12.141,0.726,17.22,0
				c0.818-0.163,1.338-0.772,1.586-1.099c0.249-0.327,0.367-1.466,0.367-1.466l-1.223-0.244c0,0,1.995-8.047,2.322-12.457
				C111.846,19.116,111.746,18.025,111.746,18.025 M101.121,33.412h-4.153l1.71-10.137l4.03-0.122L101.121,33.412z"/>
			<path clip-path="url(#SVGID_4_)" fill="#DE682D" d="M66.183,12.067c-0.354,3.027-2.593,5.23-5.004,4.92
				c-2.409-0.31-4.076-3.016-3.725-6.044c0.354-3.027,2.593-5.23,5.003-4.92C64.867,6.333,66.535,9.039,66.183,12.067"/>
			<path clip-path="url(#SVGID_4_)" d="M64.29,17.251c-0.922,0.972-2.134,1.503-3.395,1.341c-1.649-0.212-2.95-1.548-3.494-3.34
				l-3.253,0.003l1.544,2.436l-2.931,18.609h8.491c0,0,0.797-0.123,1.401-1.156c0.168-0.287,0.61-1.411,0.61-1.411l-1.465-0.384
				L64.29,17.251z"/>
			<polygon clip-path="url(#SVGID_4_)" points="5.204,39.159 5.204,44.073 4.522,44.073 4.522,38.068 5.351,38.068 8.444,42.991 
				8.444,38.068 9.126,38.068 9.126,44.073 8.298,44.073 			"/>
			<path clip-path="url(#SVGID_4_)" d="M14.594,41.953c0,1.154-0.646,2.121-2.084,2.121c-1.474,0-2.149-1.012-2.149-2.165
				c0-1.153,0.674-2.158,2.112-2.158C13.948,39.751,14.594,40.799,14.594,41.953 M13.92,41.962c0-0.897-0.455-1.713-1.473-1.713
				c-0.984,0-1.411,0.756-1.411,1.633c0,0.897,0.446,1.722,1.465,1.722C13.484,43.604,13.92,42.841,13.92,41.962"/>
			<path clip-path="url(#SVGID_4_)" d="M17.995,40.562c-0.19-0.109-0.391-0.182-0.572-0.182c-0.483,0-0.901,0.582-1.047,1.245v2.448
				h-0.637l0.023-4.322h0.5l0.052,1.056h0.037c0.172-0.564,0.554-1.056,1.201-1.056c0.227,0,0.527,0.092,0.637,0.21L17.995,40.562z"
				/>
			<path clip-path="url(#SVGID_4_)" d="M18.623,41.99c0-1.202,0.646-2.239,1.938-2.239c0.811,0,1.357,0.4,1.511,0.919v-2.602h0.638
				v6.006h-0.501l-0.072-0.747h-0.037c-0.291,0.447-0.858,0.751-1.632,0.751C19.23,44.078,18.623,43.145,18.623,41.99
				 M22.071,42.727v-1.338c-0.218-0.692-0.781-1.101-1.419-1.101c-0.838,0-1.355,0.709-1.355,1.729c0,0.782,0.308,1.628,1.236,1.628
				C21.116,43.645,21.735,43.319,22.071,42.727"/>
			<path clip-path="url(#SVGID_4_)" d="M24.446,38.068c0.245,0,0.473,0.227,0.473,0.473c0,0.256-0.227,0.455-0.473,0.455
				c-0.255,0-0.455-0.199-0.455-0.455C23.99,38.295,24.19,38.068,24.446,38.068 M24.763,44.073h-0.637v-4.322h0.637V44.073z"/>
			<path clip-path="url(#SVGID_4_)" d="M29.45,40.631c-0.273-0.205-0.864-0.391-1.384-0.391c-1.055,0-1.483,0.765-1.483,1.6
				c0,0.933,0.537,1.75,1.548,1.75c0.48,0,1.055-0.222,1.391-0.533l0.128,0.577c-0.337,0.214-0.974,0.444-1.638,0.444
				c-1.411,0-2.103-1.013-2.103-2.184c0-1.137,0.646-2.142,2.166-2.142c0.572,0,1.192,0.143,1.529,0.355L29.45,40.631z"/>
			<rect x="33.151" y="38.068" clip-path="url(#SVGID_4_)" width="0.682" height="6.006"/>
			<polygon clip-path="url(#SVGID_4_)" points="39.421,38.705 37.5,38.705 37.5,44.073 36.818,44.073 36.818,38.705 34.898,38.705 
				34.898,38.068 39.421,38.068 			"/>
			<path clip-path="url(#SVGID_4_)" d="M44.314,40.604c0.91,0.294,1.82,0.658,1.82,1.802c0,1.215-1.047,1.667-2.166,1.667
				c-0.782,0-1.492-0.222-1.984-0.487l0.191-0.648c0.465,0.311,0.892,0.55,1.738,0.55c1.102,0,1.521-0.408,1.521-0.958
				c0-0.798-0.865-1.082-1.584-1.314c-1.047-0.337-1.721-0.718-1.721-1.667c0-1.057,0.848-1.482,1.939-1.482
				c0.655,0,1.301,0.15,1.719,0.337l-0.19,0.683c-0.392-0.328-1.083-0.436-1.565-0.436c-0.764,0-1.238,0.267-1.238,0.87
				C42.794,40.108,43.249,40.259,44.314,40.604"/>
			<path clip-path="url(#SVGID_4_)" d="M50.809,41.263c0,0.196-0.026,0.435-0.081,0.534h-3.066v0.088
				c0,0.906,0.472,1.724,1.483,1.724c0.582,0,1.138-0.284,1.475-0.515l0.109,0.507c-0.318,0.195-0.928,0.479-1.656,0.479
				c-1.356,0-2.094-1.003-2.094-2.151c0-1.172,0.766-2.178,2.157-2.178C50.201,39.751,50.809,40.302,50.809,41.263 M47.725,41.325
				h2.485c0.009-0.054,0.009-0.108,0.009-0.16c0-0.606-0.528-0.916-1.111-0.916C48.316,40.25,47.88,40.711,47.725,41.325"/>
			<path clip-path="url(#SVGID_4_)" d="M54.221,40.562c-0.19-0.109-0.391-0.182-0.573-0.182c-0.483,0-0.901,0.582-1.047,1.245v2.448
				h-0.636v-4.322h0.5l0.073,1.056h0.037c0.173-0.564,0.555-1.056,1.201-1.056c0.228,0,0.527,0.092,0.637,0.21L54.221,40.562z"/>
			<polygon clip-path="url(#SVGID_4_)" points="57.278,44.073 56.468,44.073 54.567,39.748 55.258,39.748 56.886,43.453 
				58.515,39.748 59.179,39.748 			"/>
			<path clip-path="url(#SVGID_4_)" d="M60.272,38.068c0.245,0,0.473,0.227,0.473,0.473c0,0.256-0.228,0.455-0.473,0.455
				c-0.255,0-0.455-0.199-0.455-0.455C59.817,38.295,60.017,38.068,60.272,38.068 M60.588,44.073h-0.636l0.01-4.322h0.636
				L60.588,44.073z"/>
			<path clip-path="url(#SVGID_4_)" d="M65.276,40.63c-0.273-0.204-0.864-0.391-1.384-0.391c-1.055,0-1.482,0.765-1.482,1.598
				c0,0.932,0.537,1.748,1.546,1.748c0.482,0,1.055-0.221,1.392-0.532l0.127,0.577c-0.336,0.214-0.973,0.443-1.637,0.443
				c-1.411,0-2.102-1.012-2.102-2.182c0-1.136,0.646-2.139,2.166-2.139c0.572,0,1.191,0.142,1.528,0.355L65.276,40.63z"/>
			<path clip-path="url(#SVGID_4_)" d="M70.043,41.259c0,0.196-0.026,0.434-0.082,0.532h-3.065v0.088c0,0.905,0.473,1.72,1.482,1.72
				c0.583,0,1.139-0.283,1.475-0.514l0.108,0.506c-0.317,0.194-0.928,0.478-1.655,0.478c-1.356,0-2.093-1.001-2.093-2.146
				c0-1.169,0.764-2.172,2.156-2.172C69.433,39.751,70.043,40.301,70.043,41.259 M66.958,41.322h2.485
				c0.009-0.053,0.009-0.107,0.009-0.159c0-0.605-0.527-0.915-1.111-0.915C67.549,40.248,67.113,40.709,66.958,41.322"/>
			<path clip-path="url(#SVGID_4_)" d="M77.877,39.084c-0.382-0.249-0.974-0.436-1.693-0.436c-1.62,0-2.192,0.96-2.192,2.379
				c0,1.615,0.736,2.457,2.175,2.457c0.764,0,1.437-0.238,1.828-0.55l0.182,0.595c-0.481,0.283-1.182,0.54-2.038,0.54
				c-1.982,0-2.903-1.375-2.903-2.971c0-1.677,1.02-3.034,3.004-3.034c0.654,0,1.355,0.15,1.829,0.381L77.877,39.084z"/>
			<path clip-path="url(#SVGID_4_)" d="M83.117,41.953c0,1.153-0.646,2.12-2.085,2.12c-1.473,0-2.148-1.012-2.148-2.164
				c0-1.153,0.674-2.158,2.112-2.158C82.471,39.751,83.117,40.799,83.117,41.953 M82.443,41.961c0-0.897-0.455-1.713-1.474-1.713
				c-0.983,0-1.411,0.756-1.411,1.633c0,0.897,0.445,1.722,1.465,1.722C82.007,43.603,82.443,42.84,82.443,41.961"/>
			<path clip-path="url(#SVGID_4_)" d="M87.165,44.073v-2.766c0-0.737-0.382-1.019-0.893-1.019c-0.609,0-1.155,0.4-1.374,1.101
				v2.684h-0.636v-4.322h0.5l0.073,0.918h0.037c0.153-0.51,0.682-0.918,1.473-0.918c0.729,0,1.247,0.346,1.383,0.918
				c0.246-0.481,0.719-0.918,1.548-0.918c0.755,0,1.428,0.374,1.428,1.474v2.848h-0.637v-2.766c0-0.737-0.383-1.019-0.892-1.019
				c-0.609,0-1.156,0.4-1.374,1.101v2.684H87.165z"/>
			<path clip-path="url(#SVGID_4_)" d="M96.161,41.945c0,1.2-0.653,2.129-1.945,2.129c-0.811,0-1.349-0.291-1.504-0.81v3.177h-0.636
				v-6.689h0.5l0.073,0.919h0.036c0.291-0.445,0.864-0.919,1.637-0.919C95.561,39.751,96.161,40.788,96.161,41.945 M92.712,41.206
				v1.339c0.219,0.691,0.873,1.1,1.501,1.1c0.847,0,1.274-0.737,1.274-1.655c0-0.883-0.401-1.702-1.328-1.702
				C93.576,40.288,93.049,40.616,92.712,41.206"/>
			<path clip-path="url(#SVGID_4_)" d="M99.964,44.073l-0.073-0.747h-0.036c-0.292,0.457-0.988,0.747-1.68,0.747
				c-0.791,0-1.213-0.419-1.213-1.12c0-1.392,1.61-1.538,2.456-1.538h0.41v-0.109c0-0.455-0.137-0.674-0.373-0.837
				c-0.209-0.136-0.418-0.182-0.801-0.182c-0.51,0-0.874,0.145-1.237,0.364l-0.146-0.546c0.41-0.237,0.891-0.356,1.455-0.356
				c0.447,0,0.865,0.074,1.165,0.264c0.345,0.219,0.573,0.619,0.573,1.21v2.848H99.964z M99.827,42.727V41.88h-0.081
				c-0.983,0-2.112,0.092-2.112,1.038c0,0.473,0.282,0.727,0.719,0.727C98.844,43.645,99.481,43.319,99.827,42.727"/>
			<path clip-path="url(#SVGID_4_)" d="M104.776,44.073v-2.766c0-0.729-0.365-1.019-0.874-1.019c-0.61,0-1.21,0.4-1.429,1.101v2.684
				h-0.637v-4.322h0.501l0.073,0.918h0.037c0.153-0.51,0.736-0.918,1.546-0.918c0.774,0,1.419,0.374,1.419,1.474v2.848H104.776z"/>
			<path clip-path="url(#SVGID_4_)" d="M108.734,44.063c-0.356,0.799-1.002,2.34-2.203,2.34c-0.091,0-0.136-0.008-0.191-0.028
				l-0.119-0.613c0.036,0.01,0.073,0.028,0.192,0.028c0.245,0,0.445-0.037,0.655-0.186c0.427-0.305,0.764-0.929,1.046-1.719
				l-2.092-4.134h0.754l1.666,3.557l1.492-3.557h0.719L108.734,44.063z"/>
		</g>
	</g>
</g>
</svg>
